<?xml version="1.0" encoding="UTF-8"?>
<!--Generator: Apple Native CoreSVG 341-->
<!DOCTYPE svg
PUBLIC "-//W3C//DTD SVG 1.1//EN"
       "http://www.w3.org/Graphics/SVG/1.1/DTD/svg11.dtd">
<svg version="1.1" xmlns="http://www.w3.org/2000/svg" xmlns:xlink="http://www.w3.org/1999/xlink" viewBox="0 0 3300 2200">
 <!--glyph: "", point size: 100.0, font version: "21.0d4e1", template writer version: "138.0.0"-->
 <style>.defaults {-sfsymbols-variable-value-mode:color;-sfsymbols-draw-reverses-motion-groups:true}

.monochrome-0 {-sfsymbols-motion-group:0;-sfsymbols-layer-tags:7a939ec162dc629b}

.multicolor-0:tintColor {-sfsymbols-motion-group:0;-sfsymbols-layer-tags:7a939ec162dc629b}

.hierarchical-0:primary {-sfsymbols-motion-group:0;-sfsymbols-layer-tags:7a939ec162dc629b}

.SFSymbolsPreviewWireframe {fill:none;opacity:1.0;stroke:black;stroke-width:0.5}
</style>
 <g id="Notes">
  <rect height="2200" id="artboard" style="fill:white;opacity:1" width="3300" x="0" y="0"/>
  <line style="fill:none;stroke:black;opacity:1;stroke-width:0.5;" x1="263" x2="3036" y1="292" y2="292"/>
  <text style="stroke:none;fill:black;font-family:sans-serif;font-size:13;font-weight:bold;" transform="matrix(1 0 0 1 263 322)">Weight/Scale Variations</text>
  <text style="stroke:none;fill:black;font-family:sans-serif;font-size:13;text-anchor:middle;" transform="matrix(1 0 0 1 559.711 322)">Ultralight</text>
  <text style="stroke:none;fill:black;font-family:sans-serif;font-size:13;text-anchor:middle;" transform="matrix(1 0 0 1 856.422 322)">Thin</text>
  <text style="stroke:none;fill:black;font-family:sans-serif;font-size:13;text-anchor:middle;" transform="matrix(1 0 0 1 1153.13 322)">Light</text>
  <text style="stroke:none;fill:black;font-family:sans-serif;font-size:13;text-anchor:middle;" transform="matrix(1 0 0 1 1449.84 322)">Regular</text>
  <text style="stroke:none;fill:black;font-family:sans-serif;font-size:13;text-anchor:middle;" transform="matrix(1 0 0 1 1746.56 322)">Medium</text>
  <text style="stroke:none;fill:black;font-family:sans-serif;font-size:13;text-anchor:middle;" transform="matrix(1 0 0 1 2043.27 322)">Semibold</text>
  <text style="stroke:none;fill:black;font-family:sans-serif;font-size:13;text-anchor:middle;" transform="matrix(1 0 0 1 2339.98 322)">Bold</text>
  <text style="stroke:none;fill:black;font-family:sans-serif;font-size:13;text-anchor:middle;" transform="matrix(1 0 0 1 2636.69 322)">Heavy</text>
  <text style="stroke:none;fill:black;font-family:sans-serif;font-size:13;text-anchor:middle;" transform="matrix(1 0 0 1 2933.4 322)">Black</text>
  <line style="fill:none;stroke:black;opacity:1;stroke-width:0.5;" x1="263" x2="3036" y1="1903" y2="1903"/>
  <g transform="matrix(0.2 0 0 0.2 263 1933)">
   <path d="m46.2402 4.15039c21.7773 0 39.4531-17.627 39.4531-39.4043s-17.6758-39.4043-39.4531-39.4043c-21.7285 0-39.4043 17.627-39.4043 39.4043s17.6758 39.4043 39.4043 39.4043Zm0-7.42188c-17.6758 0-31.9336-14.3066-31.9336-31.9824s14.2578-31.9824 31.9336-31.9824 31.9824 14.3066 31.9824 31.9824-14.3066 31.9824-31.9824 31.9824Zm3.61328-17.7734v-28.4668c0-2.24609-1.46484-3.75977-3.71094-3.75977-2.14844 0-3.61328 1.51367-3.61328 3.75977v28.4668c0 2.19727 1.46484 3.71094 3.61328 3.71094 2.24609 0 3.71094-1.51367 3.71094-3.71094Zm-17.8223-10.5957h28.418c2.19727 0 3.71094-1.46484 3.71094-3.61328 0-2.19727-1.51367-3.71094-3.71094-3.71094h-28.418c-2.24609 0-3.75977 1.51367-3.75977 3.71094 0 2.14844 1.51367 3.61328 3.75977 3.61328Z"/>
  </g>
  <g transform="matrix(0.2 0 0 0.2 281.506 1933)">
   <path d="m58.5449 14.5508c27.4902 0 49.8047-22.3145 49.8047-49.8047s-22.3145-49.8047-49.8047-49.8047-49.8047 22.3145-49.8047 49.8047 22.3145 49.8047 49.8047 49.8047Zm0-8.30078c-22.9492 0-41.5039-18.5547-41.5039-41.5039s18.5547-41.5039 41.5039-41.5039 41.5039 18.5547 41.5039 41.5039-18.5547 41.5039-41.5039 41.5039Zm4.05273-23.0957v-36.9141c0-2.49023-1.70898-4.19922-4.15039-4.19922-2.39258 0-4.05273 1.70898-4.05273 4.19922v36.9141c0 2.44141 1.66016 4.15039 4.05273 4.15039 2.44141 0 4.15039-1.66016 4.15039-4.15039Zm-22.5586-14.4043h36.9629c2.44141 0 4.15039-1.61133 4.15039-4.00391 0-2.44141-1.70898-4.15039-4.15039-4.15039h-36.9629c-2.49023 0-4.15039 1.70898-4.15039 4.15039 0 2.39258 1.66016 4.00391 4.15039 4.00391Z"/>
  </g>
  <g transform="matrix(0.2 0 0 0.2 304.924 1933)">
   <path d="m74.8535 28.3203c35.1074 0 63.623-28.4668 63.623-63.5742s-28.5156-63.623-63.623-63.623-63.5742 28.5156-63.5742 63.623 28.4668 63.5742 63.5742 63.5742Zm0-9.08203c-30.127 0-54.4922-24.3652-54.4922-54.4922s24.3652-54.4922 54.4922-54.4922 54.4922 24.3652 54.4922 54.4922-24.3652 54.4922-54.4922 54.4922Zm4.44336-30.3223v-48.4863c0-2.73438-1.85547-4.63867-4.54102-4.63867-2.58789 0-4.44336 1.9043-4.44336 4.63867v48.4863c0 2.68555 1.85547 4.58984 4.44336 4.58984 2.68555 0 4.54102-1.85547 4.54102-4.58984Zm-28.7109-19.7754h48.4863c2.68555 0 4.58984-1.80664 4.58984-4.39453 0-2.73438-1.85547-4.58984-4.58984-4.58984h-48.4863c-2.73438 0-4.58984 1.85547-4.58984 4.58984 0 2.58789 1.85547 4.39453 4.58984 4.39453Z"/>
  </g>
  <text style="stroke:none;fill:black;font-family:sans-serif;font-size:13;font-weight:bold;" transform="matrix(1 0 0 1 263 1953)">Design Variations</text>
  <text style="stroke:none;fill:black;font-family:sans-serif;font-size:13;" transform="matrix(1 0 0 1 263 1971)">Symbols are supported in up to nine weights and three scales.</text>
  <text style="stroke:none;fill:black;font-family:sans-serif;font-size:13;" transform="matrix(1 0 0 1 263 1989)">For optimal layout with text and other symbols, vertically align</text>
  <text style="stroke:none;fill:black;font-family:sans-serif;font-size:13;" transform="matrix(1 0 0 1 263 2007)">symbols with the adjacent text.</text>
  <line style="fill:none;stroke:#00AEEF;stroke-width:0.5;opacity:1.0;" x1="776" x2="776" y1="1919" y2="1933"/>
  <g transform="matrix(0.2 0 0 0.2 776 1933)">
   <path d="m16.5527 0.78125c2.58789 0 3.85742-0.976562 4.78516-3.71094l20.5566-57.5195h0.244141l20.6055 57.5195c0.927734 2.73438 2.19727 3.71094 4.73633 3.71094 2.58789 0 4.24805-1.5625 4.24805-4.00391 0-0.830078-0.146484-1.61133-0.537109-2.63672l-22.9004-60.9863c-1.12305-2.97852-3.125-4.49219-6.25-4.49219-3.02734 0-5.07812 1.46484-6.15234 4.44336l-22.9004 61.084c-0.390625 1.02539-0.537109 1.80664-0.537109 2.63672 0 2.44141 1.5625 3.95508 4.10156 3.95508Zm10.2051-20.9473h30.6641c2.00195 0 3.66211-1.66016 3.66211-3.66211 0-2.05078-1.66016-3.66211-3.66211-3.66211h-30.6641c-2.00195 0-3.66211 1.61133-3.66211 3.66211 0 2.00195 1.66016 3.66211 3.66211 3.66211Z"/>
  </g>
  <line style="fill:none;stroke:#00AEEF;stroke-width:0.5;opacity:1.0;" x1="792.836" x2="792.836" y1="1919" y2="1933"/>
  <text style="stroke:none;fill:black;font-family:sans-serif;font-size:13;font-weight:bold;" transform="matrix(1 0 0 1 776 1953)">Margins</text>
  <text style="stroke:none;fill:black;font-family:sans-serif;font-size:13;" transform="matrix(1 0 0 1 776 1971)">Leading and trailing margins on the left and right side of each symbol</text>
  <text style="stroke:none;fill:black;font-family:sans-serif;font-size:13;" transform="matrix(1 0 0 1 776 1989)">can be adjusted by modifying the x-location of the margin guidelines.</text>
  <text style="stroke:none;fill:black;font-family:sans-serif;font-size:13;" transform="matrix(1 0 0 1 776 2007)">Modifications are automatically applied proportionally to all</text>
  <text style="stroke:none;fill:black;font-family:sans-serif;font-size:13;" transform="matrix(1 0 0 1 776 2025)">scales and weights.</text>
  <g transform="matrix(0.2 0 0 0.2 1289 1933)">
   <path d="m14.209 13.1348 7.86133 7.86133c4.29688 4.39453 9.32617 4.10156 13.8672-1.02539l60.6934-68.2129-4.88281-4.88281-60.2539 67.6758c-1.80664 1.95312-3.4668 2.44141-5.81055 0.0976562l-5.17578-5.12695c-2.29492-2.29492-1.80664-3.95508 0.195312-5.81055l67.4805-62.1582-4.88281-4.83398-68.0664 62.5977c-4.98047 4.58984-5.32227 9.47266-1.02539 13.8184Zm44.873-97.4609c-2.05078 2.00195-2.24609 4.88281-1.07422 6.78711 1.12305 1.80664 3.4668 3.02734 6.5918 2.24609 5.85938-1.66016 12.5977-2.39258 18.8965 0.927734l-2.68555 7.12891c-1.61133 4.00391-0.732422 6.88477 1.70898 9.42383l10.2539 10.3027c2.34375 2.39258 4.54102 2.44141 7.08008 1.95312l4.44336-0.732422 2.58789 2.53906-0.195312 2.24609c-0.0976562 2.29492 0.537109 4.29688 2.7832 6.49414l3.36914 3.32031c2.29492 2.29492 5.51758 2.49023 7.8125 0.195312l12.9883-13.0371c2.29492-2.34375 2.14844-5.37109-0.195312-7.66602l-3.41797-3.41797c-2.19727-2.19727-4.05273-3.02734-6.34766-2.88086l-2.34375 0.244141-2.44141-2.44141 1.02539-4.6875c0.634766-2.73438-0.244141-4.98047-2.88086-7.61719l-11.2793-11.1816c-12.9395-12.8418-35.5957-11.0352-46.6797-0.146484Zm7.08008 2.05078c8.78906-6.39648 25.9766-5.66406 33.6914 1.95312l12.3047 12.207c1.02539 1.02539 1.2207 1.80664 0.927734 3.32031l-1.46484 6.64062 6.73828 6.68945 4.39453-0.244141c1.12305-0.0488281 1.51367 0.0488281 2.34375 0.878906l2.53906 2.49023-10.8398 10.8398-2.49023-2.49023c-0.830078-0.878906-0.976562-1.2207-0.927734-2.39258l0.292969-4.3457-6.68945-6.73828-6.83594 1.17188c-1.41602 0.292969-2.05078 0.195312-3.17383-0.878906l-8.93555-8.88672c-1.07422-1.02539-1.17188-1.70898-0.488281-3.36914l4.58984-11.4746c-6.10352-6.34766-17.041-7.51953-25.5859-4.58984-0.683594 0.244141-0.927734-0.390625-0.390625-0.78125Z"/>
  </g>
  <text style="stroke:none;fill:black;font-family:sans-serif;font-size:13;font-weight:bold;" transform="matrix(1 0 0 1 1289 1953)">Exporting</text>
  <text style="stroke:none;fill:black;font-family:sans-serif;font-size:13;" transform="matrix(1 0 0 1 1289 1971)">Symbols should be outlined when exporting to ensure the</text>
  <text style="stroke:none;fill:black;font-family:sans-serif;font-size:13;" transform="matrix(1 0 0 1 1289 1989)">design is preserved when submitting to Xcode.</text>
  <text id="template-version" style="stroke:none;fill:black;font-family:sans-serif;font-size:13;text-anchor:end;" transform="matrix(1 0 0 1 3036 1933)">Template v.6.0</text>
  <text style="stroke:none;fill:black;font-family:sans-serif;font-size:13;text-anchor:end;" transform="matrix(1 0 0 1 3036 1951)">Requires Xcode 16 or greater</text>
  <text id="descriptive-name" style="stroke:none;fill:black;font-family:sans-serif;font-size:13;text-anchor:end;" transform="matrix(1 0 0 1 3036 1969)">Generated from scrum</text>
  <text style="stroke:none;fill:black;font-family:sans-serif;font-size:13;text-anchor:end;" transform="matrix(1 0 0 1 3036 1987)">Typeset at 100.0 points</text>
  <text style="stroke:none;fill:black;font-family:sans-serif;font-size:13;" transform="matrix(1 0 0 1 263 726)">Small</text>
  <text style="stroke:none;fill:black;font-family:sans-serif;font-size:13;" transform="matrix(1 0 0 1 263 1156)">Medium</text>
  <text style="stroke:none;fill:black;font-family:sans-serif;font-size:13;" transform="matrix(1 0 0 1 263 1586)">Large</text>
 </g>
 <g id="Guides">
  <g id="H-reference" style="fill:#27AAE1;stroke:none;" transform="matrix(1 0 0 1 339 696)">
   <path d="M0.993654 0L3.63775 0L29.3281-67.1323L30.0303-67.1323L30.0303-70.459L28.1226-70.459ZM11.6885-24.4799L46.9815-24.4799L46.2315-26.7285L12.4385-26.7285ZM55.1196 0L57.7637 0L30.6382-70.459L29.4326-70.459L29.4326-67.1323Z"/>
  </g>
  <line id="Baseline-S" style="fill:none;stroke:#27AAE1;opacity:1;stroke-width:0.5;" x1="263" x2="3036" y1="696" y2="696"/>
  <line id="Capline-S" style="fill:none;stroke:#27AAE1;opacity:1;stroke-width:0.5;" x1="263" x2="3036" y1="625.541" y2="625.541"/>
  <g id="H-reference" style="fill:#27AAE1;stroke:none;" transform="matrix(1 0 0 1 339 1126)">
   <path d="M0.993654 0L3.63775 0L29.3281-67.1323L30.0303-67.1323L30.0303-70.459L28.1226-70.459ZM11.6885-24.4799L46.9815-24.4799L46.2315-26.7285L12.4385-26.7285ZM55.1196 0L57.7637 0L30.6382-70.459L29.4326-70.459L29.4326-67.1323Z"/>
  </g>
  <line id="Baseline-M" style="fill:none;stroke:#27AAE1;opacity:1;stroke-width:0.5;" x1="263" x2="3036" y1="1126" y2="1126"/>
  <line id="Capline-M" style="fill:none;stroke:#27AAE1;opacity:1;stroke-width:0.5;" x1="263" x2="3036" y1="1055.54" y2="1055.54"/>
  <g id="H-reference" style="fill:#27AAE1;stroke:none;" transform="matrix(1 0 0 1 339 1556)">
   <path d="M0.993654 0L3.63775 0L29.3281-67.1323L30.0303-67.1323L30.0303-70.459L28.1226-70.459ZM11.6885-24.4799L46.9815-24.4799L46.2315-26.7285L12.4385-26.7285ZM55.1196 0L57.7637 0L30.6382-70.459L29.4326-70.459L29.4326-67.1323Z"/>
  </g>
  <line id="Baseline-L" style="fill:none;stroke:#27AAE1;opacity:1;stroke-width:0.5;" x1="263" x2="3036" y1="1556" y2="1556"/>
  <line id="Capline-L" style="fill:none;stroke:#27AAE1;opacity:1;stroke-width:0.5;" x1="263" x2="3036" y1="1485.54" y2="1485.54"/>
  <line id="right-margin-Black-S" style="fill:none;stroke:#00AEEF;stroke-width:0.5;opacity:1.0;" x1="2980.81" x2="2980.81" y1="600.785" y2="720.121"/>
  <line id="left-margin-Black-S" style="fill:none;stroke:#00AEEF;stroke-width:0.5;opacity:1.0;" x1="2885.99" x2="2885.99" y1="600.785" y2="720.121"/>
  <line id="right-margin-Regular-S" style="fill:none;stroke:#00AEEF;stroke-width:0.5;opacity:1.0;" x1="1493.96" x2="1493.96" y1="600.785" y2="720.121"/>
  <line id="left-margin-Regular-S" style="fill:none;stroke:#00AEEF;stroke-width:0.5;opacity:1.0;" x1="1405.73" x2="1405.73" y1="600.785" y2="720.121"/>
  <line id="right-margin-Ultralight-S" style="fill:none;stroke:#FF3B30;stroke-width:0.5;opacity:1.0;" x1="601.625" x2="601.625" y1="600.785" y2="720.121"/>
  <line id="left-margin-Ultralight-S" style="fill:none;stroke:#00AEEF;stroke-width:0.5;opacity:1.0;" x1="517.797" x2="517.797" y1="600.785" y2="720.121"/>
 </g>
 <g id="Symbols">
  <g id="Black-S" transform="matrix(1 0 0 1 2885.99 696)">
   <path class="monochrome-0 multicolor-0:tintColor hierarchical-0:primary SFSymbolsPreviewWireframe" d="M67.4475-8.54153C67.7026-8.5216 67.9777-8.48174 68.2527-8.48174C72.1471-8.47676 76.0454-8.50665 79.9398-8.45683C80.7928-8.44686 81.0479-8.81058 81.004-9.83197C80.9482-11.1623 80.9921-12.4976 80.9921-14.1418C85.4126-10.0761 89.6856-6.14997 94.0702-2.11422C89.7175 1.89164 85.4445 5.82276 80.9921 9.92328L80.9921 5.81279C80.9921 4.15863 80.9921 4.15365 79.7046 4.15365L4.9984 4.15365C3.79462 4.15365 3.79462 4.15365 3.79462 2.639C3.79462-0.644409 3.83049-3.92782 3.77469-7.20624C3.75476-8.27248 4.0298-8.51163 4.84693-8.50665C18.236-8.47676 31.6251-8.45185 45.0142-8.49669C51.8781-8.5216 57.2951-12.0741 60.8786-19.468C67.3439-32.8208 60.6035-50.3091 48.2149-52.5611C38.6485-54.3 29.7556-46.2733 28.1333-34.1113C27.9619-32.8457 27.95-31.5453 27.8503-30.0207C29.4168-30.2848 30.8358-30.5289 32.4422-30.798C29.927-24.7194 27.4995-18.8501 25.0362-12.9011C21.2614-17.764 17.5424-22.5521 13.9072-27.2355C14.82-27.4249 16.0317-27.6441 17.2315-27.958C17.4587-28.0178 17.7936-28.4762 17.7856-28.7402C17.7178-31.924 17.8932-35.0729 18.3915-38.1968C18.4074-38.2915 18.3715-38.4011 18.3476-38.5855C15.9161-39.1036 13.66-40.1998 11.6152-41.9635C6.61673-46.2883 4.00189-54.3349 5.22959-61.669C6.56491-69.6608 11.388-75.6347 17.6222-77.1095C21.664-78.0611 25.4109-77.1543 28.8907-74.4837C29.5045-74.0104 29.8792-73.9406 30.2818-74.7627C30.517-75.246 30.8717-75.6347 31.2783-76.2226C31.7845-73.6716 32.2589-71.285 32.7292-68.8984C32.8887-68.0963 33.0122-67.2792 33.1996-66.487C33.4029-65.63 33.1956-65.2463 32.4701-65.3061C30.3735-65.4855 28.2728-65.6449 26.1762-65.8193C25.658-65.8642 25.1438-65.9339 24.4781-66.0136C24.9963-66.8307 25.4667-67.5632 25.9809-68.3653C24.8488-69.4415 23.6012-69.9796 22.3018-70.2437C16.0198-71.5292 10.4832-65.4955 10.6107-57.5485C10.7064-51.45 14.82-45.9993 19.6789-45.4811C20.3087-45.4163 20.528-45.8149 20.7711-46.4029C24.2151-54.6637 29.4009-60.5031 36.4562-63.5424C52.7789-70.5775 69.8192-57.972 72.9642-37.3399C74.5148-27.1807 72.749-17.9035 67.8182-9.58784C67.6827-9.35864 67.5591-9.11451 67.4396-8.87037C67.4156-8.82553 67.4475-8.73584 67.4675-8.54651L67.4475-8.54153Z"/>
  </g>
  <g id="Regular-S" transform="matrix(1 0 0 1 1405.73 696)">
   <path class="monochrome-0 multicolor-0:tintColor hierarchical-0:primary SFSymbolsPreviewWireframe" d="M63.2813-11.3417C63.5182-11.3239 63.7737-11.2884 64.0292-11.2884C67.6464-11.2839 71.2674-11.3106 74.8847-11.2662C75.677-11.2573 75.9139-11.5816 75.8732-12.4923C75.8214-13.6784 75.8621-14.8689 75.8621-16.3349C79.9681-12.7099 83.9371-9.20938 88.0097-5.61109C83.9667-2.03946 79.9977 1.46554 75.8621 5.12158L75.8621 1.45666C75.8621-0.0181977 75.8621-0.02264 74.6662-0.02264L5.27546-0.02264C4.15733-0.02264 4.15733-0.02264 4.15733-1.37311C4.15733-4.3006 4.19065-7.2281 4.13881-10.1512C4.1203-11.1018 4.37577-11.315 5.13476-11.3106C17.5712-11.2839 30.0076-11.2617 42.4441-11.3017C48.8196-11.3239 53.8512-14.4913 57.1797-21.0837C63.185-32.9892 56.9242-48.5817 45.4171-50.5897C36.5313-52.1401 28.2712-44.9835 26.7643-34.1397C26.6051-33.0114 26.594-31.8519 26.5014-30.4926C27.9565-30.728 29.2745-30.9457 30.7666-31.1856C28.4304-25.7659 26.1756-20.5329 23.8875-15.2287C20.3813-19.5644 16.927-23.8335 13.5504-28.0093C14.3982-28.1781 15.5238-28.3736 16.6382-28.6535C16.8492-28.7068 17.1602-29.1155 17.1528-29.3509C17.0899-32.1896 17.2528-34.9971 17.7156-37.7824C17.7304-37.8668 17.6971-37.9646 17.6749-38.1289C15.4164-38.5909 13.3208-39.5683 11.4215-41.1408C6.77864-44.9968 4.34985-52.1712 5.4902-58.7103C6.73051-65.8358 11.2104-71.1621 17.001-72.477C20.7553-73.3255 24.2355-72.517 27.4678-70.1359C28.0379-69.7139 28.386-69.6517 28.7599-70.3847C28.9783-70.8156 29.3079-71.1621 29.6855-71.6863C30.1557-69.4118 30.5963-67.284 31.0332-65.1561C31.1813-64.4409 31.2961-63.7123 31.4701-63.006C31.6589-62.2419 31.4664-61.8999 30.7925-61.9532C28.8451-62.1131 26.8939-62.2552 24.9464-62.4107C24.4651-62.4507 23.9875-62.5129 23.3692-62.584C23.8505-63.3125 24.2874-63.9655 24.765-64.6808C23.7135-65.6403 22.5547-66.1201 21.3477-66.3555C15.5126-67.5016 10.37-62.122 10.4885-55.0365C10.5773-49.599 14.3982-44.7391 18.9115-44.2771C19.4965-44.2194 19.7001-44.5748 19.9259-45.099C23.1248-52.4643 27.9417-57.6708 34.495-60.3806C49.6564-66.6531 65.4842-55.4141 68.4054-37.0184C69.8457-27.9605 68.2055-19.6888 63.6256-12.2746C63.4997-12.0702 63.3849-11.8526 63.2739-11.6349C63.2517-11.5949 63.2813-11.5149 63.2998-11.3461L63.2813-11.3417Z"/>
  </g>
  <g id="Ultralight-S" transform="matrix(1 0 0 1 517.797 696)">
   <path class="monochrome-0 multicolor-0:tintColor hierarchical-0:primary SFSymbolsPreviewWireframe" d="M59.3273-13.0607C59.5642-13.0429 59.8197-13.0074 60.0752-13.0074C63.6924-13.0029 67.3134-13.0296 70.9307-12.9852C71.723-12.9763 71.9599-13.3006 71.9192-14.2113C71.8674-15.3974 71.9081-16.5879 71.9081-18.0539C76.0141-14.4289 79.9831-10.9284 84.0557-7.33009C80.0127-3.75846 76.0437-0.253459 71.9081 3.40258L71.9081-0.262344C71.9081-1.7372 71.9081-1.74164 70.7122-1.74164L1.32146-1.74164C0.203326-1.74164 0.203326-1.74164 0.203326-3.09211C0.203326-6.0196 0.236647-8.9471 0.184814-11.8702C0.166301-12.8208 0.421768-13.034 1.18076-13.0296C13.6172-13.0029 26.0536-12.9807 38.4901-13.0207C44.8656-13.0429 49.8972-16.2103 53.2257-22.8027C59.231-34.7082 52.9702-50.3007 41.4631-52.3087C32.5773-53.8591 24.3172-46.7025 22.8103-35.8587C22.6511-34.7304 22.64-33.5709 22.5474-32.2116C24.0025-32.447 25.3205-32.6647 26.8126-32.9046C24.4764-27.4849 22.2216-22.2519 19.9335-16.9477C16.4273-21.2834 12.973-25.5525 9.59637-29.7283C10.4442-29.8971 11.5698-30.0926 12.6842-30.3725C12.8952-30.4258 13.2062-30.8345 13.1988-31.0699C13.1359-33.9086 13.2988-36.7161 13.7616-39.5014C13.7764-39.5858 13.7431-39.6836 13.7209-39.8479C11.4624-40.3099 9.36682-41.2873 7.46747-42.8598C2.82464-46.7158 0.395851-53.8902 1.5362-60.4293C2.77651-67.5548 7.25644-72.8811 13.047-74.196C16.8013-75.0445 20.2815-74.236 23.5138-71.8549C24.0839-71.4329 24.432-71.3707 24.8059-72.1037C25.0243-72.5346 25.3539-72.8811 25.7315-73.4053C26.2017-71.1308 26.6423-69.003 27.0792-66.8751C27.2273-66.1599 27.3421-65.4313 27.5161-64.725C27.7049-63.9609 27.5124-63.6189 26.8385-63.6722C24.8911-63.8321 22.9399-63.9742 20.9924-64.1297C20.5111-64.1697 20.0335-64.2319 19.4152-64.303C19.8965-65.0315 20.3334-65.6845 20.811-66.3998C19.7595-67.3593 18.6007-67.8391 17.3937-68.0745C11.5586-69.2206 6.41599-63.841 6.53446-56.7555C6.62332-51.318 10.4442-46.4581 14.9575-45.9961C15.5425-45.9384 15.7461-46.2938 15.9719-46.818C19.1708-54.1833 23.9877-59.3898 30.541-62.0996C45.7024-68.3721 61.5302-57.1331 64.4514-38.7374C65.8917-29.6795 64.2515-21.4078 59.6716-13.9936C59.5457-13.7892 59.4309-13.5716 59.3199-13.3539C59.2977-13.3139 59.3273-13.2339 59.3458-13.0651L59.3273-13.0607Z"/>
  </g>
 </g>
</svg>
